<svg width="204" height="50" viewBox="0 0 204 50" fill="none" xmlns="http://www.w3.org/2000/svg">
<path d="M1.3125 22.5928C0.622396 22.2305 0.277344 21.756 0.277344 21.1694V18.7886C0.277344 18.202 0.622396 17.7275 1.3125 17.3652L25.6646 4.3999C26.5789 3.91683 27.2432 4.05485 27.6572 4.81396L28.6147 6.65137C29.0116 7.41048 28.7614 8.03158 27.8643 8.51465L6.28125 19.9531V20.0049L27.8643 31.4434C28.7614 31.9264 29.0116 32.5475 28.6147 33.3066L27.6572 35.144C27.2432 35.9032 26.5789 36.0412 25.6646 35.5581L1.3125 22.5928ZM37.3359 39C35.9557 39 35.2656 38.353 35.2656 37.0591V3.83057C35.2656 2.53662 35.9557 1.88965 37.3359 1.88965H46.1348C52.7598 1.88965 57.2282 2.70915 59.54 4.34814C61.8691 5.96989 63.0337 8.47152 63.0337 11.853C63.0337 14.2166 62.1624 16.0454 60.4199 17.3394C58.6947 18.6333 57.0212 19.3838 55.3994 19.5908V19.6685C56.9694 19.772 58.8154 20.5656 60.9375 22.0493C63.0596 23.533 64.1206 25.6292 64.1206 28.3379C64.1206 31.5124 62.8267 34.083 60.2388 36.0498C57.6509 38.0166 53.3809 39 47.4287 39H37.3359ZM42.8223 32.6855H46.6006C50.2581 32.6855 52.7425 32.3664 54.0537 31.728C55.3822 31.0897 56.0464 29.7957 56.0464 27.8462C56.0464 26.0174 55.2786 24.758 53.7432 24.0679C52.2249 23.3605 49.8441 23.0068 46.6006 23.0068H42.8223V32.6855ZM42.8223 16.8994H46.2124C48.438 16.8994 50.5169 16.5112 52.4492 15.7349C54.3988 14.9585 55.3735 13.7508 55.3735 12.1118C55.3735 10.8351 54.8301 9.86898 53.7432 9.21338C52.6735 8.54053 50.1632 8.2041 46.2124 8.2041H42.8223V16.8994ZM71.9102 39C70.875 39 70.3574 38.4824 70.3574 37.4473V6.88428C70.3574 6.10791 70.5386 5.40055 70.9009 4.76221L72.8936 1.26855C73.2731 0.612956 73.7217 0.285156 74.2393 0.285156H76.0508C77.0859 0.285156 77.6035 0.802734 77.6035 1.83789V37.4473C77.6035 38.4824 77.0859 39 76.0508 39H71.9102ZM83.1934 25.4136C83.1934 21.0142 84.3234 17.5636 86.5835 15.062C88.8608 12.5604 92.2424 11.3096 96.728 11.3096C101.214 11.3096 104.587 12.5604 106.847 15.062C109.124 17.5636 110.263 21.0142 110.263 25.4136C110.263 29.813 109.124 33.2635 106.847 35.7651C104.587 38.2668 101.214 39.5176 96.728 39.5176C92.2424 39.5176 88.8608 38.2668 86.5835 35.7651C84.3234 33.2635 83.1934 29.813 83.1934 25.4136ZM90.8535 25.4136C90.8535 28.6916 91.3538 31.0207 92.3545 32.4009C93.3724 33.7638 94.8302 34.4453 96.728 34.4453C98.6258 34.4453 100.075 33.7638 101.076 32.4009C102.094 31.0207 102.603 28.6916 102.603 25.4136C102.603 22.1356 102.094 19.8151 101.076 18.4521C100.075 17.0719 98.6258 16.3818 96.728 16.3818C94.8302 16.3818 93.3724 17.0719 92.3545 18.4521C91.3538 19.8151 90.8535 22.1356 90.8535 25.4136ZM114.403 25.4136C114.403 21.618 115.223 18.3228 116.862 15.5278C118.518 12.7157 121.373 11.3096 125.428 11.3096C126.98 11.3096 128.309 11.5339 129.413 11.9824C130.517 12.431 131.518 13.3971 132.415 14.8809H132.519L132.622 13.3799C132.691 12.3447 133.157 11.8271 134.02 11.8271H138.108C139.144 11.8271 139.661 12.3447 139.661 13.3799V38.7153C139.661 42.9422 138.522 45.8579 136.245 47.4624C133.968 49.0669 130.673 49.8691 126.359 49.8691C124.531 49.8691 122.84 49.7743 121.287 49.5845C119.734 49.3947 118.164 48.9202 116.577 48.1611C115.749 47.7643 115.611 47.0138 116.163 45.9097L117.095 44.0464C117.474 43.2873 118.104 43.1147 118.984 43.5288C119.691 43.8566 120.562 44.1499 121.598 44.4087C122.65 44.6675 123.979 44.7969 125.583 44.7969C127.791 44.7969 129.482 44.3828 130.655 43.5547C131.828 42.7438 132.415 40.9582 132.415 38.1978V37.7578C132.415 37.0677 132.45 36.3776 132.519 35.6875H132.415C131.518 37.1712 130.517 38.1374 129.413 38.5859C128.309 39.0345 126.98 39.2588 125.428 39.2588C121.373 39.2588 118.518 37.8613 116.862 35.0664C115.223 32.2542 114.403 29.0366 114.403 25.4136ZM122.063 25.4136C122.063 28.0015 122.417 30.1149 123.125 31.7539C123.849 33.3757 125.376 34.1865 127.705 34.1865C128.999 34.1865 130.103 33.4619 131.018 32.0127C131.949 30.5462 132.415 28.6484 132.415 26.3193V24.249C132.415 21.9199 131.949 20.0308 131.018 18.5815C130.103 17.1151 128.999 16.3818 127.705 16.3818C125.376 16.3818 123.849 17.2013 123.125 18.8403C122.417 20.4621 122.063 22.6532 122.063 25.4136ZM146.286 33.3066C145.889 32.5475 146.139 31.9264 147.037 31.4434L168.62 20.0049V19.9531L147.037 8.51465C146.139 8.03158 145.889 7.41048 146.286 6.65137L147.244 4.81396C147.658 4.05485 148.322 3.91683 149.236 4.3999L173.588 17.3652C174.278 17.7275 174.624 18.202 174.624 18.7886V21.1694C174.624 21.756 174.278 22.2305 173.588 22.5928L149.236 35.5581C148.322 36.0412 147.658 35.9032 147.244 35.144L146.286 33.3066ZM180.265 9.03223C179.368 8.46289 179.256 7.58301 179.929 6.39258C180.636 5.15039 181.973 3.94271 183.94 2.76953C185.907 1.59635 188.391 1.00977 191.393 1.00977C195.482 1.00977 198.493 1.93278 200.425 3.77881C202.374 5.62484 203.349 8.15234 203.349 11.3613C203.349 13.7939 201.917 16.425 199.053 19.2544C196.207 22.0666 194.783 24.387 194.783 26.2158V26.6299C194.783 27.7513 194.222 28.312 193.101 28.312H189.219C188.098 28.312 187.537 27.7513 187.537 26.6299V25.8535C187.537 23.0241 188.874 20.2119 191.548 17.417C194.24 14.6221 195.585 12.5518 195.585 11.2061C195.585 9.80859 195.258 8.73031 194.602 7.97119C193.964 7.19482 192.808 6.80664 191.134 6.80664C189.651 6.80664 188.451 7.14307 187.537 7.81592C186.623 8.48877 185.872 9.30827 185.286 10.2744C184.716 11.2233 183.949 11.3872 182.982 10.7661L180.265 9.03223ZM189.193 39C187.986 39 187.382 38.353 187.382 37.0591V33.5913C187.382 32.2974 187.986 31.6504 189.193 31.6504H193.127C194.335 31.6504 194.938 32.2974 194.938 33.5913V37.0591C194.938 38.353 194.335 39 193.127 39H189.193Z" fill="black"/>
</svg>
